<svg width="600" height="600" viewBox="0 0 600 600" fill="none" xmlns="http://www.w3.org/2000/svg">
<rect width="600" height="600" rx="300" fill="url(#paint0_linear_45_3206)"/>
<rect x="25" y="25" width="550" height="550" rx="275" fill="url(#paint1_linear_45_3206)" fill-opacity="0.5"/>
<path d="M298.124 232.716L227.511 431H175.875L105.262 232.716H155.091L200.66 380.009H202.725L248.424 232.716H298.124ZM299.81 431V166.622H346.54V265.505H348.477C350.887 260.686 354.286 255.565 358.675 250.144C363.064 244.636 369.002 239.945 376.49 236.073C383.977 232.114 393.53 230.135 405.148 230.135C420.467 230.135 434.279 234.05 446.586 241.882C458.979 249.627 468.79 261.116 476.019 276.349C483.334 291.496 486.991 310.085 486.991 332.116C486.991 353.89 483.42 372.393 476.277 387.625C469.134 402.858 459.409 414.476 447.102 422.48C434.796 430.484 420.854 434.485 405.277 434.485C393.917 434.485 384.493 432.592 377.006 428.805C369.519 425.019 363.494 420.458 358.933 415.122C354.458 409.7 350.973 404.579 348.477 399.76H345.766V431H299.81ZM345.637 331.858C345.637 344.681 347.444 355.912 351.059 365.551C354.759 375.19 360.052 382.72 366.937 388.142C373.908 393.478 382.342 396.145 392.239 396.145C402.566 396.145 411.215 393.392 418.186 387.884C425.157 382.29 430.407 374.673 433.935 365.035C437.55 355.31 439.357 344.251 439.357 331.858C439.357 319.552 437.593 308.622 434.064 299.069C430.536 289.516 425.286 282.029 418.315 276.607C411.344 271.185 402.652 268.475 392.239 268.475C382.256 268.475 373.779 271.099 366.808 276.349C359.837 281.599 354.544 288.957 350.93 298.424C347.401 307.89 345.637 319.035 345.637 331.858Z" fill="url(#paint2_linear_45_3206)"/>
<defs>
<linearGradient id="paint0_linear_45_3206" x1="0" y1="300" x2="600" y2="300" gradientUnits="userSpaceOnUse">
<stop stop-color="#E6DAFA"/>
<stop offset="1" stop-color="#B2EEEF"/>
</linearGradient>
<linearGradient id="paint1_linear_45_3206" x1="25" y1="300" x2="575" y2="300" gradientUnits="userSpaceOnUse">
<stop stop-color="#F1EBFC"/>
<stop offset="1" stop-color="#D6F7F7"/>
</linearGradient>
<linearGradient id="paint2_linear_45_3206" x1="97" y1="299" x2="503" y2="299" gradientUnits="userSpaceOnUse">
<stop stop-color="#6433A2"/>
<stop offset="1" stop-color="#235D67"/>
</linearGradient>
</defs>
</svg>
